<svg xmlns="http://www.w3.org/2000/svg" xml:space="preserve" width="1500" height="193" data-id="lg_gA8uDjsItwyxav5zw4" data-version="1" viewBox="0 0 1500 193"><g data-padding="20"><g transform="translate(10 3.428)scale(.96448)"><rect width="586.305" height="201.14" x="88.906" y="-417.216" fill="none" rx="0" ry="0" transform="matrix(.96 0 0 .96 400.48 400.48)"/><path d="M533.544 151.373q-9.427 0-17.098-4.512-7.593-4.502-11.98-12.47-4.378-7.968-4.378-17.818v-7.92q0-.672.672-.672h19.354q.662 0 .662.922v7.67q0 6.26 3.59 10.224t9.178 3.965q5.174 0 8.928-4.3 3.754-4.292 3.754-9.889V31.642q0-.672.672-.672h19.19q.662 0 .662.835l.173 84.768q0 9.35-4.502 17.28-4.599 8.007-12.106 12.759-7.507 4.761-16.77 4.761"/><path d="M600.456 151.363q-9.09 0-16.77-4.675-7.595-4.675-12.222-12.47-4.627-7.805-4.627-17.146L567 62.918q0-9.513 4.59-17.107 4.501-7.67 12.181-12.307 7.67-4.627 16.685-4.627 9.35 0 16.771 4.589 7.507 4.588 12.058 12.307t4.55 17.145l.163 54.154q0 9.34-4.502 17.098-4.589 7.843-12.182 12.518-7.594 4.675-16.858 4.675m0-20.611q5.174 0 9.014-4.214t3.84-9.466l-.172-54.154q0-5.673-3.58-9.6-3.59-3.916-9.102-3.916-5.25 0-9.014 3.84-3.754 3.83-3.754 9.676v54.154q0 5.587 3.754 9.629 3.763 4.051 9.014 4.051m66.75 18.951H636.58q-.672 0-.672-.835l.336-117.399q0-.662.672-.662h32.87q9.6 0 17.443 4.665 7.67 4.676 12.096 12.394 4.416 7.718 4.416 16.733 0 7.344-3.33 13.68-3.342 6.345-7.93 10.262 4.924 4.925 7.68 11.434t2.755 13.68q0 9.936-4.762 18.105-4.838 8.18-12.93 13.056-8.094 4.887-18.02 4.887m2.581-98.621H656.77v26.86h13.017q5.923 0 9.6-4.214 3.667-4.214 3.667-9.13 0-5.423-3.916-9.474-3.927-4.042-9.35-4.042m-2.582 47.558H656.77l-.164 30.202h10.6q6.172 0 10.588-4.502 4.425-4.512 4.425-10.685t-4.425-10.599q-4.416-4.416-10.59-4.416"/><path d="M733.282 151.373q-9.1 0-16.772-4.675-7.593-4.675-12.144-12.47-4.55-7.805-4.55-17.146v-7.843q0-.922.835-.922h19.19q.673 0 .673.922v7.843q0 5.587 3.753 9.629 3.754 4.051 9.015 4.051 5.337 0 9.09-4.128t3.754-9.552q0-6.26-8.179-10.934-1.334-.836-3.456-2.045-2.13-1.21-5.05-2.794t-5.673-3.13q-2.755-1.545-5.338-2.966-9.35-5.5-13.9-13.805-4.54-8.304-4.54-18.652 0-9.504 4.664-17.184 4.676-7.594 12.23-12.058 7.546-4.464 16.398-4.464 9.09 0 16.684 4.502 7.594 4.599 12.144 12.183 4.541 7.593 4.541 17.02v14.026q0 .663-.662.663H746.8q-.673 0-.673-.663l-.163-14.025q0-6-3.753-9.754-3.764-3.763-8.928-3.763-5.26 0-9.015 4.013-3.753 4.003-3.753 9.504 0 5.596 2.38 9.35 2.372 3.754 8.717 7.171.663.336 3.082 1.67 2.42 1.335 5.385 2.967 2.967 1.622 5.386 2.918t2.918 1.546q8.506 4.752 13.47 11.683 4.972 6.922 4.972 17.021 0 9.754-4.512 17.52-4.589 7.757-12.182 12.26-7.594 4.511-16.848 4.511m90.355-1.67h-55.239q-.662 0-.662-.835l.163-117.399q0-.662.663-.662h54.902q.672 0 .672.835v19.104q0 .662-.672.662h-35.04v26.708h35.04q.672 0 .672.662l.163 19.363q0 .663-.662.663h-35.213v29.875h35.213q.662 0 .662.835v19.517q0 .672-.662.672m60.816 0h-55.239q-.662 0-.662-.835l.163-117.399q0-.662.672-.662h54.903q.662 0 .662.835v19.104q0 .662-.662.662h-35.05v26.708h35.05q.662 0 .662.662l.173 19.363q0 .663-.672.663H849.24v29.875h35.213q.672 0 .672.835v19.517q0 .672-.672.672m24.94 0H890.04q-.672 0-.672-.835l.336-117.226q0-.835.672-.835h19.19q.663 0 .663.835v40.464l26.784-40.637q.672-.662 1.257-.662h19.604q.748 0 .336.662l-29.54 47.146 33.13 70.416q.413.672-.835.672h-20.86q-.836 0-1.009-.672L915.99 98.804l-5.923 9.35v40.714q0 .835-.672.835"/><path d="M978.562 149.703h-19.364q-.662 0-.662-.835l.336-117.399q0-.662.662-.662h34.542q9.264 0 17.03 4.502 7.757 4.503 12.385 12.096 4.636 7.594 4.636 17.194 0 6.259-1.92 11.347t-4.464 8.592-4.636 5.174q9.264 10.263 9.264 24.116l.163 35.04q0 .835-.826.835h-19.363q-.662 0-.662-.5v-35.375q0-6.183-4.34-10.685T990.66 98.64h-11.263l-.173 50.228q0 .835-.662.835m15.513-98.458h-14.678v26.87h14.678q5.261 0 9.39-3.926 4.127-3.917 4.127-9.59 0-5.424-4.003-9.389t-9.514-3.965"/></g><path fill="transparent" stroke="transparent" d="M468.5 0h563v193h-563z"/></g></svg>